<?xml version="1.0" standalone="no"?>
<!DOCTYPE svg PUBLIC "-//W3C//DTD SVG 20010904//EN"
 "http://www.w3.org/TR/2001/REC-SVG-20010904/DTD/svg10.dtd">
<svg version="1.0" xmlns="http://www.w3.org/2000/svg"
 width="256.000000pt" height="256.000000pt" viewBox="0 0 256.000000 256.000000"
 preserveAspectRatio="xMidYMid meet">
<metadata>
Created by potrace 1.11, written by Peter Selinger 2001-2013
</metadata>
<g transform="translate(0.000000,256.000000) scale(0.100000,-0.100000)"
fill="#000000" stroke="none">
<path d="M1318 2485 c-1 -1 -41 -5 -88 -8 -116 -8 -169 -18 -278 -53 -103 -32
-214 -89 -302 -154 -84 -63 -157 -133 -165 -161 -4 -11 -21 -27 -38 -35 -73
-37 -176 -132 -244 -225 -70 -95 -152 -278 -167 -373 -4 -21 -8 -41 -10 -45
-9 -14 -18 -121 -18 -201 0 -279 137 -580 366 -805 110 -109 129 -124 218
-182 185 -119 354 -173 538 -169 99 1 126 6 190 30 81 30 85 31 235 23 254
-12 454 66 628 247 158 163 297 430 337 646 19 101 20 109 21 210 1 193 -49
330 -162 442 -51 50 -71 78 -80 110 -32 120 -155 334 -235 409 -178 167 -404
266 -648 285 -39 3 -76 7 -83 9 -6 2 -13 2 -15 0z m135 -79 c267 -32 527 -181
651 -374 61 -95 110 -196 132 -275 15 -54 26 -74 52 -94 64 -48 101 -93 130
-155 66 -141 74 -294 27 -522 -38 -186 -201 -467 -349 -603 -139 -127 -279
-183 -471 -189 -66 -2 -143 1 -172 7 -45 8 -58 7 -90 -10 -115 -58 -281 -70
-428 -32 -168 45 -368 165 -510 306 -181 182 -294 392 -341 635 -8 42 -8 231
0 280 43 268 195 516 382 625 44 26 69 48 80 72 32 65 199 189 340 251 170 74
367 101 567 78z"/>
<path d="M1226 2268 c-175 -16 -344 -81 -474 -183 -40 -31 -72 -59 -72 -63 0
-4 42 -7 93 -8 85 -1 144 -6 207 -19 14 -2 50 -10 80 -15 125 -25 304 -83 405
-131 156 -76 349 -241 436 -374 99 -151 108 -284 29 -432 -28 -55 -32 -71 -12
-59 18 11 120 151 146 200 48 91 61 164 60 341 0 119 -3 137 -31 218 -32 90
-102 218 -151 273 -45 51 -133 117 -207 156 -157 82 -323 113 -509 96z"/>
<path d="M687 1944 c-215 -43 -396 -260 -457 -549 -20 -95 -16 -246 9 -345 82
-319 367 -632 672 -735 120 -41 243 -48 331 -19 53 17 71 34 38 34 -12 0 -63
14 -114 31 -288 96 -509 332 -579 619 -27 110 -32 174 -25 320 0 8 9 58 20
110 37 175 126 332 263 458 l76 70 -53 7 c-83 12 -119 12 -181 -1z"/>
<path d="M971 1865 c-78 -26 -157 -134 -176 -240 -7 -41 -8 -145 -1 -180 17
-88 79 -188 150 -242 134 -103 354 -153 356 -82 0 15 -48 64 -114 117 -136
108 -205 190 -241 284 -35 94 -6 226 69 315 23 27 24 31 8 35 -9 3 -32 0 -51
-7z"/>
<path d="M1088 1824 c-30 -9 -21 -18 60 -54 102 -45 170 -89 214 -139 72 -79
111 -188 104 -291 -9 -124 -55 -210 -139 -255 l-52 -29 30 -12 c18 -8 60 -11
105 -9 196 10 350 97 395 225 19 54 19 142 0 206 -38 131 -253 282 -480 339
-71 17 -205 28 -237 19z"/>
<path d="M1056 1669 c-52 -41 -26 -150 67 -275 48 -65 102 -112 135 -119 67
-12 112 158 66 248 -68 132 -196 202 -268 146z"/>
<path d="M2197 1475 c-7 -83 -60 -256 -108 -355 -107 -222 -288 -398 -480
-470 -217 -80 -444 -54 -709 81 -110 56 -150 69 -150 51 0 -20 62 -93 122
-144 310 -263 690 -369 953 -266 102 40 231 153 314 277 89 132 170 332 188
466 26 188 -18 359 -106 421 -17 12 -19 8 -24 -61z"/>
<path d="M725 1390 c-4 -6 -9 -52 -12 -103 -12 -212 76 -374 264 -486 112 -67
201 -94 308 -95 117 -1 154 7 245 51 129 64 310 269 310 352 0 24 -3 25 -28
11 -28 -15 -233 -105 -283 -123 -73 -27 -179 -47 -255 -47 -204 0 -392 141
-500 376 -19 41 -36 74 -39 74 -2 0 -7 -5 -10 -10z"/>
</g>
</svg>
